<?xml version="1.0" encoding="utf-8"?>
<!-- Generator: Adobe Illustrator 28.0.0, SVG Export Plug-In . SVG Version: 6.00 Build 0)  -->
<svg version="1.1" id="Capa_1" xmlns="http://www.w3.org/2000/svg" xmlns:xlink="http://www.w3.org/1999/xlink" x="0px" y="0px"
	 viewBox="0 0 390 392.5" style="enable-background:new 0 0 390 392.5;" xml:space="preserve">
<style type="text/css">
	.st0{fill:url(#SVGID_1_);}
	.st1{fill:#B61C22;}
	.st2{fill:#C62626;}
	.st3{fill:#C44827;}
	.st4{fill:#DB492C;}
	.st5{fill:#E86F3F;}
	.st6{fill:#E58F41;}
	.st7{fill:#252424;}
	.st8{fill:#3B4D82;}
</style>
<g id="Triángulo">
	
		<linearGradient id="SVGID_1_" gradientUnits="userSpaceOnUse" x1="306.4741" y1="221.1369" x2="53.0834" y2="-24.3353" gradientTransform="matrix(1 0 0 -1 0 391.89)">
		<stop  offset="0" style="stop-color:#CCCCCC"/>
		<stop  offset="1" style="stop-color:#B3B3B3"/>
	</linearGradient>
	<path class="st0" d="M367.3,386H22.7C9,386,0.1,371.6,6.2,359.4L178.5,14.7c6.8-13.6,26.1-13.6,32.9,0l172.3,344.7
		C389.9,371.6,381,386,367.3,386z"/>
	<g>
		<path class="st1" d="M296.1,286.4H93.9c-4.5,0-8.6-2.3-11-6.1c-2.4-3.8-2.6-8.6-0.6-12.6L183.4,65.4c2.2-4.4,6.6-7.2,11.6-7.2
			c4.9,0,9.4,2.7,11.6,7.2l101.1,202.3c2,4,1.8,8.8-0.6,12.6C304.8,284.1,300.7,286.4,296.1,286.4z M195,62.5
			c-3.3,0-6.2,1.8-7.7,4.8L86.1,269.6c-1.4,2.7-1.2,5.8,0.4,8.4c1.6,2.6,4.3,4.1,7.4,4.1h202.3c3,0,5.8-1.5,7.4-4.1
			c1.6-2.6,1.7-5.7,0.4-8.4L202.7,67.3C201.2,64.3,198.3,62.5,195,62.5z"/>
		<path class="st2" d="M296.1,279.2H93.9c-2,0-3.9-1-4.9-2.7c-1.1-1.7-1.2-3.8-0.3-5.6L189.8,68.6c1-2,2.9-3.2,5.2-3.2
			c2.2,0,4.2,1.2,5.2,3.2l101.1,202.3c0.9,1.8,0.8,3.9-0.3,5.6C300,278.2,298.2,279.2,296.1,279.2z M195,69.7
			c-0.9,0-1.2,0.6-1.3,0.8L92.5,272.8c-0.3,0.6-0.1,1.1,0.1,1.4c0.2,0.3,0.6,0.7,1.3,0.7h202.3c0.7,0,1.1-0.4,1.3-0.7
			c0.2-0.3,0.4-0.8,0.1-1.4L196.3,70.5C196.2,70.3,195.9,69.7,195,69.7z"/>
		<path class="st3" d="M290.4,272H99.6c-0.7,0-1.4-0.4-1.8-1c-0.4-0.6-0.4-1.4-0.1-2.1l95.4-190.8c0.4-0.7,1.1-1.2,1.9-1.2
			c0.8,0,1.6,0.5,1.9,1.2l95.4,190.8c0.3,0.7,0.3,1.5-0.1,2.1C291.9,271.6,291.2,272,290.4,272z M103.1,267.7h183.9L195,83.9
			L103.1,267.7z"/>
		<path class="st4" d="M278.8,264.9H111.2c-0.7,0-1.4-0.4-1.8-1c-0.4-0.6-0.4-1.4-0.1-2.1l83.8-167.6c0.4-0.7,1.1-1.2,1.9-1.2
			c0.8,0,1.6,0.5,1.9,1.2l83.8,167.6c0.3,0.7,0.3,1.5-0.1,2.1C280.2,264.5,279.6,264.9,278.8,264.9z M114.7,260.6h160.7L195,99.9
			L114.7,260.6z"/>
		<path class="st5" d="M267.2,257.7H122.8c-0.7,0-1.4-0.4-1.8-1c-0.4-0.6-0.4-1.4-0.1-2.1l72.2-144.4c0.4-0.7,1.1-1.2,1.9-1.2
			c0.8,0,1.6,0.5,1.9,1.2l72.2,144.4c0.3,0.7,0.3,1.5-0.1,2.1C268.6,257.3,268,257.7,267.2,257.7z M126.3,253.4h137.5L195,115.9
			L126.3,253.4z"/>
		<path class="st6" d="M255.6,250.5H134.4c-0.7,0-1.4-0.4-1.8-1c-0.4-0.6-0.4-1.4-0.1-2.1l60.6-121.2c0.4-0.7,1.1-1.2,1.9-1.2l0,0
			c0.8,0,1.6,0.5,1.9,1.2l60.6,121.2c0.3,0.7,0.3,1.5-0.1,2.1C257,250.1,256.4,250.5,255.6,250.5z M137.9,246.2h114.2L195,132
			L137.9,246.2z"/>
	</g>
	<g>
		<path id="Cabeza_Invert_Abajo_2_" class="st1" d="M182.5,191.8c0,0,10.7,11.5,32.2,9c0,0-8-2.4-8.3-5.7c0,0,0-2.6,2.3-2.2
			c0,0,1.8-0.1,3.1,2.8c0,0,4.3-8-5.1-11.4c0,0-2.7-3.6-8.2-2.2c0,0,1.4,2,0.6,2.7c0,0-2.2-1.4-5.9,0.6c0,0,4.3-0.2,5.4,1.9
			c0,0-4.5-3.6-11.3,1.4c0,0,7.6-1.7,10.5,2.9c0,0-6.5-5.5-14.6-0.6c0,0,11.6-1.5,13.6,5.8C196.8,196.7,194.1,189.9,182.5,191.8z"/>
		<path id="Cuerpo_2_" class="st1" d="M175.3,185c0,0,12.6,21,39.9,16.4l-22.1,11.3l22.7-10.3c0,0,0.2,1.1-0.6,4.7l-19.7,10.9
			l18.8-8.7c0,0-0.6,3.8-1.8,5.5l-15,8.6l13.9-6.4c0,0-0.2,2.3-4,6.9l-7.7,4.5l6.6-2.8c0,0-3.7,5.9-10,10.1c0,0-9.6-4.8-6-15.8
			c0,0-2.6,1.8-2.3,6.5c0,0-11.2-9.1-3.1-17.9c0,0-3.9,1.8-4.3,5.6C180.6,214,170.9,205.1,175.3,185z"/>
	</g>
	<g id="A-Salvo">
		<path class="st1" d="M109,336.4H92.7l-2.7,7.8h-8.7l14.8-41.1h9.6l14.8,41.1h-8.7L109,336.4z M106.8,329.8l-5.9-17.2l-5.9,17.2
			H106.8z"/>
		<path class="st1" d="M151.1,319.7v6.9h-25v-6.9H151.1z"/>
		<path class="st1" d="M165.6,343.3c-2.1-1-3.8-2.3-5-3.9c-1.2-1.6-1.9-3.5-2-5.5h8.3c0.2,1.3,0.8,2.3,1.9,3.1
			c1.1,0.8,2.4,1.2,4,1.2c1.6,0,2.8-0.3,3.7-0.9c0.9-0.6,1.3-1.4,1.3-2.4c0-1.1-0.5-1.9-1.6-2.4c-1.1-0.5-2.8-1.1-5.1-1.7
			c-2.4-0.6-4.4-1.2-6-1.8c-1.6-0.6-2.9-1.6-4-2.9c-1.1-1.3-1.7-3-1.7-5.2c0-1.8,0.5-3.5,1.6-4.9c1-1.5,2.5-2.7,4.5-3.5
			c1.9-0.9,4.2-1.3,6.9-1.3c3.9,0,7,1,9.3,2.9c2.3,1.9,3.6,4.6,3.8,7.9h-7.9c-0.1-1.3-0.7-2.3-1.6-3.1c-1-0.8-2.2-1.1-3.9-1.1
			c-1.5,0-2.6,0.3-3.4,0.8c-0.8,0.5-1.2,1.3-1.2,2.3c0,1.1,0.5,1.9,1.6,2.5c1.1,0.6,2.8,1.1,5.1,1.7c2.4,0.6,4.3,1.2,5.8,1.8
			c1.5,0.6,2.9,1.6,4,2.9s1.7,3.1,1.7,5.2c0,1.9-0.5,3.6-1.6,5.1c-1,1.5-2.5,2.7-4.5,3.5c-1.9,0.8-4.2,1.3-6.8,1.3
			C170.1,344.7,167.7,344.3,165.6,343.3z"/>
		<path class="st1" d="M192.2,319c1.3-2.5,3.1-4.5,5.4-5.9c2.3-1.4,4.8-2.1,7.6-2.1c2.4,0,4.6,0.5,6.4,1.5c1.8,1,3.3,2.2,4.4,3.7
			v-4.6h8.3v32.6h-8.3v-4.8c-1.1,1.5-2.5,2.8-4.4,3.8c-1.9,1-4,1.5-6.4,1.5c-2.7,0-5.2-0.7-7.5-2.1c-2.3-1.4-4-3.4-5.4-6
			c-1.3-2.6-2-5.5-2-8.9C190.2,324.5,190.9,321.6,192.2,319z M214.7,322.8c-0.8-1.4-1.8-2.5-3.2-3.3c-1.3-0.8-2.8-1.1-4.3-1.1
			s-2.9,0.4-4.2,1.1c-1.3,0.7-2.3,1.8-3.1,3.3c-0.8,1.4-1.2,3.1-1.2,5.1c0,2,0.4,3.7,1.2,5.1c0.8,1.5,1.9,2.6,3.2,3.4
			c1.3,0.8,2.7,1.2,4.2,1.2c1.5,0,3-0.4,4.3-1.1c1.3-0.8,2.4-1.9,3.2-3.3c0.8-1.4,1.2-3.1,1.2-5.1
			C215.9,325.9,215.5,324.2,214.7,322.8z"/>
		<path class="st1" d="M240.5,300.7v43.5h-8.2v-43.5H240.5z"/>
		<path class="st1" d="M262.2,336.6l8.2-25h8.8l-12.1,32.6h-10l-12-32.6h8.8L262.2,336.6z"/>
		<path class="st1" d="M289.9,342.6c-2.5-1.4-4.5-3.4-5.9-5.9c-1.4-2.5-2.1-5.5-2.1-8.8c0-3.3,0.7-6.3,2.2-8.8
			c1.5-2.5,3.5-4.5,6-5.9c2.5-1.4,5.4-2.1,8.5-2.1c3.1,0,6,0.7,8.5,2.1c2.5,1.4,4.6,3.4,6,5.9c1.5,2.6,2.2,5.5,2.2,8.8
			c0,3.3-0.8,6.3-2.3,8.8c-1.5,2.6-3.6,4.5-6.1,5.9c-2.6,1.4-5.4,2.1-8.6,2.1C295.2,344.7,292.4,344,289.9,342.6z M302.6,336.5
			c1.3-0.7,2.4-1.8,3.1-3.3c0.8-1.5,1.2-3.2,1.2-5.3c0-3.1-0.8-5.5-2.4-7.2c-1.6-1.7-3.6-2.5-6-2.5s-4.3,0.8-5.9,2.5
			c-1.6,1.7-2.4,4.1-2.4,7.2s0.8,5.5,2.3,7.1c1.5,1.7,3.5,2.5,5.9,2.5C299.8,337.6,301.2,337.2,302.6,336.5z"/>
	</g>
	<g id="Por_CSP">
		<path class="st7" d="M238.8,355.4c0.6-0.3,1.3-0.5,2.2-0.5c1,0,1.8,0.2,2.6,0.7c0.8,0.5,1.4,1.2,1.9,2.1c0.5,0.9,0.7,2,0.7,3.2
			c0,1.2-0.2,2.3-0.7,3.2c-0.5,0.9-1.1,1.6-1.9,2.1c-0.8,0.5-1.7,0.7-2.6,0.7c-0.8,0-1.5-0.2-2.2-0.5c-0.6-0.3-1.1-0.8-1.5-1.3v7.2
			h-3.6v-17.3h3.6v1.7C237.7,356.2,238.1,355.7,238.8,355.4z M241.7,358.8c-0.5-0.5-1.1-0.8-1.8-0.8c-0.7,0-1.3,0.3-1.8,0.8
			c-0.5,0.5-0.7,1.2-0.7,2.1c0,0.9,0.2,1.6,0.7,2.1c0.5,0.5,1.1,0.8,1.8,0.8s1.3-0.3,1.8-0.8c0.5-0.5,0.8-1.2,0.8-2.1
			C242.4,360,242.2,359.3,241.7,358.8z"/>
		<path class="st7" d="M250.2,366.2c-0.9-0.5-1.6-1.2-2.2-2.1c-0.5-0.9-0.8-2-0.8-3.2c0-1.2,0.3-2.3,0.8-3.2
			c0.5-0.9,1.3-1.6,2.2-2.1c0.9-0.5,2-0.7,3.1-0.7c1.1,0,2.2,0.2,3.1,0.7c0.9,0.5,1.7,1.2,2.2,2.1c0.5,0.9,0.8,2,0.8,3.2
			s-0.3,2.3-0.8,3.2c-0.5,0.9-1.3,1.6-2.2,2.1c-0.9,0.5-2,0.7-3.1,0.7C252.2,366.9,251.1,366.7,250.2,366.2z M255.1,363.1
			c0.5-0.5,0.7-1.2,0.7-2.2c0-0.9-0.2-1.7-0.7-2.2c-0.5-0.5-1-0.8-1.7-0.8c-0.7,0-1.3,0.2-1.7,0.7c-0.5,0.5-0.7,1.2-0.7,2.2
			c0,0.9,0.2,1.7,0.7,2.2c0.5,0.5,1,0.8,1.7,0.8C254,363.8,254.6,363.6,255.1,363.1z"/>
		<path class="st7" d="M266.5,355.5c0.6-0.4,1.3-0.6,2.1-0.6v3.8h-1c-0.9,0-1.6,0.2-2,0.6c-0.4,0.4-0.7,1.1-0.7,2v5.4h-3.6v-11.7
			h3.6v2C265.4,356.4,265.9,355.9,266.5,355.5z"/>
		<path class="st8" d="M275.2,355.5c0.6-1.1,1.5-2,2.6-2.7c1.1-0.6,2.4-1,3.8-1c1.8,0,3.3,0.5,4.5,1.4c1.2,0.9,2.1,2.2,2.5,3.8h-4
			c-0.3-0.6-0.7-1.1-1.3-1.4c-0.5-0.3-1.2-0.5-1.8-0.5c-1.1,0-2,0.4-2.7,1.2c-0.7,0.8-1,1.8-1,3.1s0.3,2.3,1,3.1
			c0.7,0.8,1.6,1.2,2.7,1.2c0.7,0,1.3-0.2,1.8-0.5c0.5-0.3,1-0.8,1.3-1.4h4c-0.4,1.6-1.3,2.9-2.5,3.8s-2.7,1.4-4.5,1.4
			c-1.4,0-2.7-0.3-3.8-1c-1.1-0.6-2-1.5-2.6-2.7c-0.6-1.1-0.9-2.4-0.9-3.9S274.5,356.6,275.2,355.5z"/>
		<path class="st8" d="M293.3,366.4c-0.9-0.3-1.5-0.9-2-1.6c-0.5-0.7-0.8-1.5-0.8-2.5h3.8c0.1,0.5,0.2,1,0.6,1.3s0.7,0.4,1.3,0.4
			c0.5,0,1-0.1,1.3-0.4c0.3-0.2,0.5-0.6,0.5-1c0-0.4-0.1-0.7-0.4-0.9c-0.2-0.2-0.5-0.4-0.9-0.6c-0.4-0.2-0.9-0.3-1.5-0.5
			c-1-0.3-1.7-0.6-2.3-0.9c-0.6-0.3-1.1-0.7-1.6-1.3c-0.4-0.6-0.7-1.3-0.7-2.2c0-1.4,0.5-2.4,1.5-3.2s2.3-1.2,3.9-1.2
			c1.6,0,2.9,0.4,3.9,1.2c1,0.8,1.5,1.9,1.6,3.2h-3.9c0-0.5-0.2-0.9-0.5-1.1c-0.3-0.3-0.7-0.4-1.2-0.4c-0.4,0-0.8,0.1-1.1,0.3
			s-0.4,0.6-0.4,1c0,0.5,0.2,0.8,0.7,1.1c0.4,0.3,1.1,0.6,2.1,0.9c1,0.3,1.7,0.6,2.3,0.9c0.6,0.3,1.1,0.7,1.5,1.3
			c0.4,0.6,0.7,1.3,0.7,2.2c0,0.8-0.2,1.6-0.6,2.3c-0.4,0.7-1,1.2-1.9,1.6c-0.8,0.4-1.8,0.6-2.9,0.6
			C295.1,366.9,294.1,366.8,293.3,366.4z"/>
		<path class="st8" d="M314.4,359.1c-0.4,0.7-1,1.3-1.8,1.7c-0.8,0.4-1.8,0.7-3,0.7h-2.2v5.3h-3.6V352h5.8c1.2,0,2.2,0.2,3,0.6
			c0.8,0.4,1.4,1,1.8,1.7c0.4,0.7,0.6,1.5,0.6,2.5C315,357.6,314.8,358.4,314.4,359.1z M310.9,358.1c0.3-0.3,0.5-0.8,0.5-1.4
			c0-0.6-0.2-1-0.5-1.4c-0.3-0.3-0.8-0.5-1.5-0.5h-2v3.7h2C310,358.6,310.5,358.5,310.9,358.1z"/>
	</g>
</g>
</svg>
